# xmcd CD database file
#
# Track frame offsets:
#	150
#	24978
#	46370
#	64765
#	80788
#	98176
#	112968
#	141380
#	162545
#	174378
#	206453
#
# Disc length: 2962 seconds
#
# Revision: 0
# Processed by: cddbd v1.5.2PL0 Copyright (c) Steve Scherf et al.
# Submitted via: CDex 1.70beta2
#
DISCID=950b900b
DTITLE=Cowboy Junkies - At The End Of Paths Taken
DYEAR=2007
DGENRE=Country Blues
TTITLE0=Brand New World
TTITLE1=Still Lost
TTITLE2=Cutting Board Blues
TTITLE3=Spiral Down
TTITLE4=My Little Basquiat
TTITLE5=Someday Soon
TTITLE6=Follower 2
TTITLE7=It Doesn't Really Matter Anyway
TTITLE8=Blue Eyed Saviour
TTITLE9=Mountain
TTITLE10=My Only Guarantee
EXTD=YEAR: 2007
EXTT0=
EXTT1=
EXTT2=
EXTT3=
EXTT4=
EXTT5=
EXTT6=
EXTT7=
EXTT8=
EXTT9=
EXTT10=
PLAYORDER=
